<?xml version="1.0" standalone="no"?>
<!DOCTYPE svg PUBLIC "-//W3C//DTD SVG 20010904//EN"
 "http://www.w3.org/TR/2001/REC-SVG-20010904/DTD/svg10.dtd">
<svg version="1.0" xmlns="http://www.w3.org/2000/svg"
 width="16.000000pt" height="16.000000pt" viewBox="0 0 16.000000 16.000000"
 preserveAspectRatio="xMidYMid meet">
<metadata>
Created by potrace 1.11, written by Peter Selinger 2001-2013
</metadata>
<g transform="translate(0.000000,16.000000) scale(0.003200,-0.003200)"
fill="#000000" stroke="none">
<path d="M1207 4044 c-1 -1 -65 -4 -142 -7 -343 -15 -539 -97 -669 -280 -87
-123 -133 -239 -163 -405 -15 -86 -6 -285 17 -377 48 -193 154 -352 303 -454
95 -65 319 -151 393 -151 39 0 35 -16 -9 -40 -23 -13 -51 -32 -61 -42 -11 -10
-27 -20 -36 -23 -22 -7 -138 -134 -208 -228 -81 -108 -200 -306 -365 -607 -17
-30 -41 -72 -54 -92 -13 -21 -23 -39 -23 -41 0 -2 -42 -78 -94 -168 -52 -90
-92 -166 -90 -168 3 -3 402 -5 440 -2 7 1 21 18 32 39 10 20 30 55 42 77 13
22 37 65 53 95 17 30 41 72 54 92 13 21 23 39 23 42 0 6 195 349 268 471 179
299 276 420 392 488 99 57 112 59 431 63 274 3 297 2 301 -14 2 -9 3 -317 3
-684 -1 -595 1 -668 15 -669 85 -5 319 -3 332 4 10 4 18 4 18 0 0 -6 318 -9
398 -4 9 1 12 115 12 535 l0 533 176 169 c97 93 213 203 257 245 l81 76 176
-246 c97 -135 331 -462 519 -726 189 -264 362 -504 385 -534 l41 -54 258 -1
c143 -1 263 2 269 5 7 5 -445 619 -802 1089 -10 14 -125 167 -254 340 -130
173 -239 320 -244 325 -4 6 -19 25 -32 43 l-25 34 90 85 c183 174 275 262 460
438 104 99 228 217 275 262 47 44 101 95 120 113 34 31 137 129 291 277 76 73
77 73 45 73 -17 1 -143 1 -280 1 l-249 1 -96 -95 c-53 -52 -157 -155 -231
-227 -74 -73 -305 -299 -513 -504 -208 -204 -454 -445 -545 -535 l-167 -163
-3 761 -2 761 -43 1 c-106 1 -1569 4 -1570 3z m837 -854 l0 -505 -449 -1
c-465 -1 -545 3 -655 36 -129 38 -221 111 -279 219 -146 275 -32 629 232 717
118 40 149 42 657 40 l494 -1 0 -505z"/>
</g>
</svg>
